<?xml version="1.0"?>
<svg xmlns="http://www.w3.org/2000/svg" xmlns:xlink="http://www.w3.org/1999/xlink" version="1.1" id="Layer_1" x="0px" y="0px" viewBox="0 0 511.998 511.998" style="enable-background:new 0 0 511.998 511.998;" xml:space="preserve" width="512px" height="512px" class=""><g><g>
	<g>
		<path d="M460.212,407.685l-1.812-0.516c-26.469-7.109-35.422-13.938-47.218-18.422c-28.625-10.906-42.75-19.75-49.703-25.969    l-6.125-23.844l-0.141-19.766c22.359-29.922,38.344-67.279,38.344-105.967c0-7.281-0.422-14.344-1.219-21.203h13h10.656    c5.89,0,10.655-4.773,10.655-10.664s-4.766-10.672-10.655-10.672h-10.656c0-63.679-39.875-118.038-95.999-139.506v-9.82    c0-4.055-2.312-7.758-5.938-9.555C302.432,11.297,279.417,0,255.995,0s-46.445,11.297-47.414,11.781    c-3.625,1.805-5.922,5.5-5.922,9.555l0.008,9.82c-56.132,21.468-96.007,75.827-96.007,139.506H95.996    c-5.89,0-10.664,4.781-10.664,10.672s4.774,10.665,10.664,10.665h10.664h12.992c-0.797,6.859-1.211,13.922-1.211,21.203    c0,38.688,15.977,76.045,38.336,105.967l-0.141,19.766l-6.125,23.844c-6.945,6.219-21.062,15.062-49.711,25.969    c-11.789,4.484-20.742,11.312-47.21,18.422l-1.812,0.516c-24.093,7.969-40.304,30.312-40.304,55.531v48.781h200.225h44.296h44.297    h200.232v-48.781C500.524,437.997,484.306,415.653,460.212,407.685z M165.488,80.156c10.945-10.945,23.523-19.648,37.188-25.914    l0.008,41.805c0.008,5.891,4.781,10.664,10.672,10.664c5.891-0.008,10.664-4.781,10.664-10.672l-0.023-67.726    c7.82-3.062,20.453-6.977,32-6.977c12.172,0,24.812,4.172,32,7v66.327c0,5.891,4.781,10.672,10.656,10.672    c5.906,0,10.688-4.781,10.688-10.672V54.25c13.656,6.258,26.219,14.969,37.156,25.906c24.187,24.18,37.499,56.32,37.499,90.507    h-256C127.996,136.477,141.309,104.336,165.488,80.156z M139.776,213.202c0.001-7.258,0.47-14.328,1.376-21.203h229.686    c0.906,6.875,1.375,13.945,1.375,21.203c0,35.133-15.984,73.5-43.843,105.264c-12.25,13.938-25.969,25.625-39.688,33.766    c-12.234,7.266-23.844,11.266-32.688,11.266c-8.844,0-20.453-4-32.687-11.266c-13.719-8.141-27.438-19.828-39.688-33.766    C155.76,286.702,139.776,248.335,139.776,213.202z M274.417,401.653l-4.773,14.344h-27.297l-4.773-14.344l18.421-15.781    L274.417,401.653z M214.746,490.653H32.801v-27.438c0-15.906,10.164-29.984,25.328-35.156l1.195-0.344    c19.945-5.375,30.961-10.641,39.812-14.875c3.422-1.656,6.383-3.062,9.258-4.156c15.328-5.844,34.375-13.859,48.703-24    l25.523,47.062c1.531,2.844,4.266,4.812,7.438,5.406c0.641,0.125,1.289,0.188,1.938,0.188c2.523,0,4.992-0.906,6.938-2.578    l21.148-18.109l3.664,11L214.746,490.653z M195.082,409.966l-23.523-43.375l6.023-23.438    c17.016,16.922,35.672,29.656,53.046,36.375L195.082,409.966z M255.995,490.653h-19.703l7.625-53.312h24.156l7.625,53.312H255.995    z M334.402,343.153l6.031,23.438l-23.531,43.375l-35.531-30.438C298.746,372.809,317.402,360.075,334.402,343.153z     M479.181,490.653H297.245l-9-63l3.656-11l21.156,18.109c1.938,1.672,4.406,2.578,6.938,2.578c0.656,0,1.297-0.062,1.938-0.188    c3.172-0.594,5.906-2.562,7.438-5.406l25.53-47.062c14.328,10.156,33.375,18.156,48.719,24c2.844,1.094,5.812,2.5,9.234,4.156    c8.858,4.234,19.858,9.5,39.812,14.875l1.203,0.344c15.156,5.172,25.312,19.25,25.312,35.156V490.653z" data-original="#000000" class="active-path" data-old_color="#SOROUS" fill="#808080"/>
	</g>
</g></g> </svg>
